<svg width="24" height="24" viewBox="0 0 24 24" fill="none" xmlns="http://www.w3.org/2000/svg">
<path fill-rule="evenodd" clip-rule="evenodd" d="M12.0557 0.735107C12.6603 0.735107 13.2401 0.975286 13.6677 1.40281C14.0952 1.83033 14.3354 2.41017 14.3354 3.01477V9.85378H21.1744C21.779 9.85378 22.3588 10.094 22.7863 10.5215C23.2138 10.949 23.454 11.5288 23.454 12.1334C23.454 12.738 23.2138 13.3179 22.7863 13.7454C22.3588 14.1729 21.779 14.4131 21.1744 14.4131H14.3354V21.2521C14.3354 21.8567 14.0952 22.4366 13.6677 22.8641C13.2401 23.2916 12.6603 23.5318 12.0557 23.5318C11.4511 23.5318 10.8712 23.2916 10.4437 22.8641C10.0162 22.4366 9.77602 21.8567 9.77602 21.2521V14.4131H2.93702C2.33241 14.4131 1.75257 14.1729 1.32505 13.7454C0.897525 13.3179 0.657349 12.738 0.657349 12.1334C0.657349 11.5288 0.897525 10.949 1.32505 10.5215C1.75257 10.094 2.33241 9.85378 2.93702 9.85378H9.77602V3.01477C9.77602 2.41017 10.0162 1.83033 10.4437 1.40281C10.8712 0.975286 11.4511 0.735107 12.0557 0.735107Z" fill="white" fill-opacity="0.8"/>
</svg>
